<?xml version="1.0" encoding="UTF-8"?>
<svg id="Layer_1" xmlns="http://www.w3.org/2000/svg" version="1.1" viewBox="0 0 141.73 141.73">
  <!-- Generator: Adobe Illustrator 30.3.0, SVG Export Plug-In . SVG Version: 2.1.3 Build 182)  -->
  <path d="M128.81,94.62l-4.22-6.57-7.68-10.43c-.11-.18.12-1.32.44-1.2l1.53.56c4.1,5.19,7.75,10.65,11.01,16.46l-.06,1.31c-.01.28-.54.06-1.02-.13Z"/>
  <path d="M21.19,54.99c1.07,1.27,2.91,3.12,3.06,4.58.04.44-1.34.91-1.55.59l-.95-1.4-8.48-10.11.39-1.49c.1-.38,1.17.22,1.46.57l6.08,7.26Z"/>
  <path d="M18.17,85.15l-8.72,6.97c-.23.13-1.32-.31-1.23-.54l.53-1.48,13.78-10.46c-.47,2.76-2.25,3.82-4.37,5.51Z"/>
  <path d="M135.16,63.48c-6.36,1.34-12.49,1.4-18.87,1.14.07-1.66,1.15-1.8,2.44-1.81l7.7-.06c2.81.33,5.61-1.33,8.72.73Z"/>
  <path d="M132.17,40.76c-2.72,3.82-8.78,11.19-11.07,11.52-.33.05-.39-1.31-.14-1.58l7.09-7.48,4.36-4.9c.2.84.13,1.93-.24,2.44Z"/>
  <path d="M21.69,69.44c-.83,2.17-1.95,1.03-2.81.76l-11.93-3.73-.43-1.49c-.1-.33,1.2-.41,1.56-.28l9.13,3.18,4.48,1.57Z"/>
</svg>