<?xml version="1.0" encoding="UTF-8"?>
<svg id="Layer_1" xmlns="http://www.w3.org/2000/svg" version="1.1" viewBox="0 0 141.73 141.73">
  <!-- Generator: Adobe Illustrator 30.3.0, SVG Export Plug-In . SVG Version: 2.1.3 Build 182)  -->
  <path d="M85.35,108.15l-10.76-12.21c-9.22,12.7-15.95,26.4-20.28,41.02l-4.57,2.54c-1.09.6-3.22,1.54-4.35,1.52-1.35-.03-1.66-3.5-1.3-4.84l3.98-14.84,7.6-44.17-9.15-7.24-19.25-10.3c-1.34-.72-2.61-5.11-1.17-5.29l19.84-2.52,14.92-2.7c2.74-15.61,5.72-30.08,10.34-45.14l3.09-2.76c.7-.63,2.34,2.36,2.47,3.38l4.88,39.02,26.59-3.27c3.06-.38,6.69-.64,8.71,1.84l-18.49,22.47-9.8,12.6,14.95,44.52c1.02,3.04,3.77,6.85-.78,8.8l-5.75-9.11-11.74-13.32ZM77.74,45.41l-4.65-33.02c-4.52,12.68-6.06,23.46-8.06,35.73l12.72-2.71ZM94.89,62.34l13.67-17.15c-9.3-.14-16.52.79-26.12,3.2l5.04,23.44,7.4-9.5ZM74.24,88.88l9.84-12.61-5.57-26.28-14.81,2.63-4.48,22.35,7.02,6.27,8,7.64ZM56.46,71.31l3.27-17.16-26.24,4.39c9.12,4.61,15.42,7.49,22.97,12.77ZM56.47,117.53c4.52-9.41,8.78-16.95,15.07-25l-12.9-12.44-8.09,49.78,5.92-12.34ZM94.88,112.25l-9.27-30.27-8.51,10.62,17.77,19.65Z"/>
</svg>