<?xml version="1.0" encoding="UTF-8"?>
<svg id="Layer_1" xmlns="http://www.w3.org/2000/svg" version="1.1" viewBox="0 0 610.56 501.84">
  <!-- Generator: Adobe Illustrator 30.3.0, SVG Export Plug-In . SVG Version: 2.1.3 Build 182)  -->
  <g id="kKyg8o">
    <g>
      <path d="M0,175.08v-2.17s1.48-1.28,1.48-1.28c.75.64,1.57,1.42,1.72,2.04.14.54-.35,1.85-.91,1.82L0,175.08Z"/>
      <path d="M162.58,501.84h-1.44s.25-.95.25-.95c.09-.25,1.16-.04,1.17.23l.02.72Z"/>
      <path d="M409.24,245.93l-6.53,1.5c-2.79.64-5.7,1.1-7.96-.92l-.26-4.04c-3.78-3.8-2.38-9.57-.55-14.91,2.32-6.75,6.83-12.15,10.61-18.02,4.78-7.43,10.36-12.8,17.84-17.41,11.42-7.03,23.04-13.14,36.17-16.48l21.4-5.45,10.65-.97c3.39-.31,6.45,1.11,8.06,4.2,1.81.62,4.05,2.13,4.26,4.14.37,3.62-1.41,6.65-3.12,9.59l-7.57,13.01c-3.84,6.6-8.37,12.27-15.18,16.09-4.55,2.55-9.21,5.05-14.2,6.79-6.12,2.14-11.55,4.76-17.34,7.65l-14.79,7.39c-6.8,3.4-13.73,6.06-21.48,7.84ZM496.39,172.95c-1.73-3.83-12.49-2.98-16.95-.73l9.27-.6c2.8-.18,5.19.31,7.68,1.34ZM475.82,173.36c-2.29-.3-4.32.37-6.2,1.22,2.54-.17,4.29-.62,6.2-1.22ZM473.5,210.95c7.79-6.13,14.05-13.32,19.98-20.94,3.89-5.01,5.68-10.37,2.21-15.55-7.2-1.38-20.63,2.29-27.92,5.09l-15.27,5.85c-7.88,3.02-15.06,7.19-21.68,12.37-5.07,3.97-7.54,9.14-10.41,15.22.66-14.76,18.99-23.3,31.68-28.98,9.51-4.25,19.24-6.88,29.19-10.07-8.69.41-16.41,3.12-24.34,5.8l-8.33,2.82c-10.42,4.79-19.75,10.96-28.24,18.74-9.31,8.54-16.25,19.15-20.67,30.97l-3.06,9.48c5.93,4.08,8.1,1.91,13.13-.2l16.27-6.83,15.66-7.31,10.53-5.28,12.24-6.02c3.01-1.48,6.23-2.95,9.03-5.16ZM499.98,181.89c1.58-1.77,2.55-5.32-.21-6.63l.21,6.63ZM398.1,231.78c7.82-20.48,20.76-33.57,39.42-45.15-10.52,2.99-17.8,9.8-25.2,17.13-3.02,2.99-6.05,5.98-7.91,9.81-2.85,5.89-5.32,11.69-6.31,18.21ZM483.39,204.51c5.91-3.71,10.35-9.14,13.03-15.55l-13.03,15.55ZM462.81,221.13c6.3-1.82,11.2-5,16.23-8.12,3.47-2.88,6.92-5.4,8.81-9.6-4.03,3.49-8.48,5.55-12.64,8.61l-12.4,9.12ZM453.2,224.72l10.16-6.08-.38-.45-2.31,1.34-16.94,8.73c3.5-.93,6.57-1.8,9.48-3.54ZM394.71,239.68l4.72-19.08c-3.59,4.71-7.25,14.08-4.72,19.08ZM414.51,242.87c9.22-3.03,17.26-6.86,25.39-11.11-7.37,1.41-13.58,4.97-20.09,8.28-1.91.93-3.87,1.59-5.3,2.83ZM399.7,245.53l-3.39-1.85c0,.81.19,2.03.7,2l2.69-.15Z"/>
      <path d="M207.84,348.23c-7.72-2.4-16.78-10.16-19.52-18.03-.6-1.71.67-5.22,2.02-6.35,5.34-4.47,14.11-1.69,18.99,4.37l5.17-6.61c2.84-3.63,6.88-5.09,11.41-5.18l4.87.54c.84.09,2.12,1.1,2.44,1.76,1.55,3.24-5.84,12.03-9.19,16.71-4.1,5.71-7.57,11.75-13.45,16.24-.59-1.83-1.37-3.02-2.73-3.45ZM195.84,335.92c3.17,5.29,8.25,9.06,14.19,10.38l3.11-1.6c2.66-2,4.57-4.69,6.68-7.28,3.03-3.73,5.49-8.07,6.86-12.69l1.67-5.62c-1.73.16-2.45,1.43-3.47,2.23-4.23,2.23-7.95,4.63-10.64,8.56-1.14-.24-2.65.03-2.95.76l-1.24,3.05c-2.64-.83-5.11-2.34-7.09-4.15-3.31-3.01-7.56-4.09-12.02-1.84l4.9,8.19ZM221.49,320.47c-3.29.42-6,3.06-7.96,5.82l7.96-5.82Z"/>
      <path d="M295.9,72.73l-4.44-5.04c-3.8,5.24-6.58,10.89-8.37,16.93l-1.89,1.05c-.45.25-1.33.64-1.79.63-.56-.01-.69-1.44-.54-2l1.64-6.12,3.14-18.23-3.77-2.99-7.94-4.25c-.55-.3-1.08-2.11-.48-2.18l8.19-1.04,6.16-1.11c1.13-6.44,2.36-12.41,4.27-18.63l1.28-1.14c.29-.26.97.98,1.02,1.39l2.01,16.1,10.97-1.35c1.26-.16,2.76-.26,3.6.76l-7.63,9.27-4.04,5.2,6.17,18.37c.42,1.26,1.56,2.83-.32,3.63l-2.37-3.76-4.85-5.5ZM292.76,46.84l-1.92-13.63c-1.86,5.23-2.5,9.68-3.33,14.75l5.25-1.12ZM299.83,53.82l5.64-7.08c-3.84-.06-6.82.33-10.78,1.32l2.08,9.67,3.05-3.92ZM291.31,64.77l4.06-5.2-2.3-10.85-6.11,1.09-1.85,9.22,2.9,2.59,3.3,3.15ZM283.98,57.52l1.35-7.08-10.83,1.81c3.76,1.9,6.36,3.09,9.48,5.27ZM283.98,76.6c1.86-3.88,3.62-7,6.22-10.32l-5.32-5.14-3.34,20.54,2.44-5.09ZM299.83,74.42l-3.82-12.49-3.51,4.38,7.34,8.11Z"/>
      <path d="M329.97,169.16c-2.16,3.04-4.96,5.38-7.67,7.44l-1.41-1.29c-.3-.28-.98.34-1.82,1l-8.32-8.84-3.66-4.98c-2.58-3.51-3.98-7.75-3.25-12.12.33-1.99,1.97-3.43,4.14-3.22,6.4.61,9.6,6.61,13.7,11.55.41-6.86,9.86-11.51,13.37-8.73,3.04,2.41,3.27,7.46,1.03,10.6l-6.1,8.58ZM310.31,151.19l-1.76-1.64c-.22-.2-1.08-.35-1.36-.39s-.13,1.16-.05,1.49l3.17.54ZM333.04,159.2c1.57-5.18-.09-9.29-1.31-7.96-.23.24-.55.81-.57,1,.85.65,1.76,1.78,1.78,2.52l.11,4.44ZM328.26,154.61l-4.55,5.59.82,5.73-3.95-.62c-.69-1.64-1.04-3.58-1.27-5.6s-2.26-4.14-4.13-4.78l-8.23-2.81c.92,3.37,2.16,5.86,4.2,8.28l4.12,4.9c2.81,2.63,5.5,4.84,7.09,8.64,2.4-2.53,5.16-4.79,6.77-7.78,2-3.73,2.35-7.92,2.36-12.12-.97-.18-2.74,0-3.21.57ZM314.33,168.21c.05-1.51-.93-2.7-2.27-2.99l2.27,2.99Z"/>
      <path d="M33.08,317.87c-3.15-2.05-6.29-3.5-8.34-6.86l-2.52-3.22c-.48-.62-.94-2.41-.59-3.18.51-1.12,4.59-4.04,7.12-3.73,6.05.75,11.34,2.96,16.52,6.18,1.31-1.43,3.4-2.87,4.48-4.43,3.94-5.66,8.34-10.62,14.82-13.57.52-.24,1.96-.2,2.35.21,1.94,2.03-1.21,8.65-3.41,12.65l-6.65,12.07-4.79,9.67.02,1.36c.02,1.7-6.21-2.23-8.61-2.78-4.01-.92-6.88-2.09-10.4-4.38ZM26.4,305.44l3.37,5.96c2.69,4.76,14.79,9.55,21.42,9.75l4.61-9.12c3.3-6.52,5.54-13.31,8.13-20.34-7.14,2.63-11.95,10.47-15.71,17.05l-2.53,4.42c-2.42-2.34-3.97-3.61-6.48-5.07-4.19-2.44-9.68-5.42-12.8-2.65ZM26.9,309.3l-2.12-4.16c-.79,2.34.66,3.42,2.12,4.16ZM41.29,307c-.62-.77-1.42-1.22-2.49-1.34.63.76,1.42,1.21,2.49,1.34Z"/>
      <path d="M352.78,162.63c-5.74-4.43-7.19-13.36-2.52-15.18,2.62-1.03,5.71,1.38,7.47,3.21l5.18,5.4c3.29-8.34,15.58-12.71,16.03-8.32.34,3.37-.29,6.34-1.99,9.25-3.11,5.3-7.38,9.7-12.02,13.78-1.85,1.62-4.74,2.43-6.34.14l-5.81-8.28ZM375.56,149.49c-.02.32,1.14,1.5,1.11,1.18l-.08-.89c-.02-.24-1.02-.54-1.04-.29ZM355.35,152.12c-1.08-1.2-2.22-2.88-4.43-1.73l4.43,1.73ZM351.04,152.08c.16,4.87,2.31,8.23,4.97,11.36l6.49,6.6c1.39-1.24,2.56-2.3,3.33-3.66,2.73-4.83,4.98-9.49,6.86-14.75-3.53,1.4-5.85,4.01-8.04,6.95.33,2.11-1.5,3.51-3.34,3.51-2.42-5.19-4.41-8.6-10.27-10.01ZM371.23,159.71c2.21-2.47,4.19-5.14,3.86-8.63-1.81,2.86-2.92,5.65-3.86,8.63Z"/>
      <path d="M542.16,101.65c-.45.16-1.09,1.81-.74,2.09l1.98,1.59c-1.17,1.2-2.93.34-3.59-.91s-.22-3.27,1.37-4.08c2.31-1.18,5.98-.69,7.94,1.42,2.32,2.49-3.18,9.83-10.5,9.52-2.84-.12-5.53-2.4-5.79-5.27-.4-4.42.38-8.9,2.62-12.74.74-1.27,2.4-2.67,3.55-3.55,2.51-1.92,5.69-1.74,8.14.08l5.8,4.3c2.98,2.21,5.56,5.57,5.25,9.29-.56,6.66-4.25,11.54-10.17,14.08-4.4,1.89-9.25,2.84-14.02,1.7-11.37-2.74-11.94-15.42-7.91-26.06,1.83-4.83,5.94-8.65,10.86-9.71s9.38-1.26,13.74.38c1.79.67,3.91,1.6,3.42,4.11l-2.49-2.05c-3.59-2-7.63-1.93-11.64-1.5-10.08,1.09-13.73,9.98-14.3,19.72-.23,3.96.87,7.55,3.44,10.2,4.83,4.97,12.3,4.46,18.83,1.16,5.29-2.68,9.55-8.69,8.02-14.82-.93-3.7-7.92-8.82-11.73-10.31-5.4-2.12-11.33,8.64-9.08,16.38.95,3.26,5.43,3.34,7.84,1.98,2.63-1.49,4.74-3.14,4.69-6.48-1.47-.81-3.78-1.15-5.54-.51Z"/>
      <path d="M599.02,54.89l-8.67-6.5c-3.21.31-5.95,3.17-9.57,3.81-1.4-.42-1.4-2.54-.95-3.58l4.44-10.29-8.75-9.69c4.24-2.04,8.48-1.28,12.42-1.91l7.46-8.82c.31-.36,1.42-.47,1.73-.47.39,0-.09,1.4.07,1.78l3.33,8.02,9.65-1.79c-1.44,8.43-8.31,10.41-8.03,21.58.1,4.17-1.17,10.9-1.66,10.92l-1.45.08-.03-3.15ZM592.08,45.83l-.03,1.54,7.07,4.79,1.86-12.86c1.35-4.06,4.27-6.92,6.4-11.24l-8.9,1.64-1.15-4.59c-.33-1.3-1.01-2.67-1.84-4.25l-5.41,5.8-2.34,1.81c-2.39.26-5.41.41-8.29,1.24,2.25,3.15,4.74,5.53,7.43,7.84.23.66-.83,1.82-1.14,2.38-1.56,2.84-2.71,5.74-3.73,9.4,4.06-.79,10.12-5.91,10.07-3.51Z"/>
      <path d="M414.77,328.12c4.02-5.35,11.58-15.02,12.85-9l2.02,9.59c4.96-2.33,9.28-7.78,11.39-8.32,1.68-.44.99,5.5,5.08,8.43l6.39-7.18,3.7-3.78c2.38.6,1.71,4.55,4.24,5.29.76.22,2.38-.36,2.97-1.02l4.11-4.69c2.41-2.74,2.43,3.62,7.55,4.29,2.46.32,6.28.7,8.59-.69,2.6-1.57,2.54-6.25,1.86-8.77-.39-1.46-1.44-1.62-2.82-1.8-.26-.59.52-1.68,1.2-1.8,4.32-.77,5.49,10.15,1.39,13.69-3.43,2.97-13.77,2.84-17.18-2.93-1.64,1.96-3.21,4.74-5.45,5.63-3.17,1.26-5.55-1.48-6.97-4.51l-6.86,8.52c-.96,1.19-2.56,2.17-3.98,1.25-2.58-1.67-3.6-4.52-4.57-7.62-4.23,4.3-11.6,11.17-12.64,6.47l-2.18-9.94c-5.86,3.7-8.86,12.22-10.69,8.89Z"/>
      <path d="M45.56,53.96c-5.52,3.7-14.84-2.35-20.52-7.21-.12-1.6,4.82-4.51,5.59-4.57,3.62-.28,6.71.3,10.16,1.42l2.68-8.62,3.22-2.27c.65-.46,1.71-1.06,2.35-.99.73.08,1.82,1.72,1.71,2.46l-.94,5.98c-.55,3.49-1.57,8.06-3.12,11.08-.18.35-1.44.65-1.39.97l.26,1.74ZM44.48,50.27c1.62-3.87,2.89-7.38,4.09-11.47.38-1.28-.86-3.33-1.81-3.71-3.43,2.91-3.52,7.39-3.34,11.29-1.5.19-2.92.48-3.74.7-3.13-.21-6.22-.44-9.63-.28,3.04,5.14,13.35,6.04,14.43,3.48ZM40.27,45.99l-.19-.9-2.85-1.08-.31.38,3.35,1.6Z"/>
      <path d="M425.15,291.79c.19,3.54-.14,8.3-.94,11.36-.12.47-1.86.28-1.83-.12l.13-1.66c1.4-4.27,1.24-8.61.47-13.04l.3-1.45c.09-.41,1.52.2,1.73.6,1.55,2.9,4.04,6.89,7.4,7.88,5.3-3.93,4.02-12.98,6.61-9.61l3.68,4.78c.26.34,1.28.8,1.65.77,2.96-.26,3.68-8.72,4.85-11.01.16-.31,1.39.24,1.57.59l2.86,5.55c.5.96,1.92,2.07,2.95,2.05,3.91-3.81,3.01-8.73,5.06-9.72.83-.4.21,6.4,6,7.21,3.96.56,7.27-.56,9.25-4.38,2.37,1.95-1.96,6.22-7.15,6.4-3.3.11-5.88-1.19-8.33-3.98l-2.35,4.45c-.44.84-2.38,2.41-3.28,2.09-2.81-1.21-4.31-4.15-5.66-6.68l-2.34,6.81c-.36,1.05-2.35,3.02-3.43,2.7-2.53-.74-4.14-2.93-5.81-5.17l-3.07,6.87c-.39.88-1.93,1.85-2.76,2.03-.88.18-2.55-.56-3.26-1.23l-4.31-4.1Z"/>
      <path d="M171.02,142.11c-2.88-1.02-4.11-3.49-7.55-4.29l-7.28-7.22,3.49-3.3c3.48-.82,6.1.05,9.31,1.64,2.48-5.08,9.47-11.57,12.27-9.82,2.16,1.35.21,5.24-1.29,8.17l-4.57,8.95-2.51,3.67.03,1.63c0,.37-1.53.71-1.91.57ZM162.7,133.48l8.61,6.07,1.67-3.44c2.27-4.67,4.77-8.73,6.32-13.72-.3-.12-1.87-.09-2.18.28l-4.45,5.37c-1.06,1.28-1.33,2.16-2.12,3.96l-3.91-1.3c-2.18-.73-4.33-1.08-6.5-.41.14,1.78,1.34,2.34,2.55,3.19Z"/>
      <path d="M241.6,243.53l5.75,8.45c-3.12,1.69-5.93,4.09-7.72,6.86-.19.29-1.11.73-1.46.79-.44.07-.74-1.36-.4-1.79,1.43-1.84,3.81-4.22,5.97-6.04-8.36-.12-16.38-1.57-23.43-5.92l-3.63-3c-3.26-2.7-5.07-6.72-6.73-10.53-1.21-4.19-1.99-7.76-2.5-12.18l1.37-.82c1.11-.67-.31,21.35,18.38,27.42,5.11,1.66,9.99,2.97,15.77,2.72l-6.32-10.18c-.18-.29-.46-1.09-.53-1.35-.08-.34.36-.83.66-1s1.26.41,1.45.73l3.36,5.86Z"/>
      <path d="M331.86,237.95l.16,11.9v1.52c0,.37-1.07.76-1.44.69-.46-.09-1.08-1.06-1.07-1.59l.16-9.74.57-19.76.14-4.08c-3.54,3.31-7.43,10.54-7.41,10.55l-1.41-.56c-.33-.13-.17-1.14-.09-1.64l8.53-11.28,1.49-.3c.41-.08.89,1.12,1.17,1.43l4.6,5.09c1.16,1.28,2.35,3.97,2.62,5.45.07.36-1.11,1.5-1.35,1.23-1.24-1.42-1.25-5.08-6.19-8.16l-.3,10.78-.19,8.47Z"/>
      <path d="M80.3,141.4l-2.95,2.98-.91,1.05c-.2.24-1.18,0-1.26-.3-.58-2.08,4.45-3.32,4.73-9.06l-4.85-1.28c-.29-.08-1.15-1.06-.9-1.21s.94-.47,1.27-.5l5.02-.38c1.97-.15.77-5.86,3.46-8.22l2.5,7.62,5.17-.84c-.41,1.94-1.48,3.05-3.31,4.21l2.05,4.44c.1.25.27,1.19,0,1.13-.28-.06-1.04-.29-1.27-.46l-3.6-2.76-5.16,3.58ZM84.92,132.23l-1.35-2.75-.75,2.75c-.11.41,1.91.26,2.11,0ZM86.38,136.04c-.48-2.77-2.67-2.07-3.92-1.26l3.92,1.26ZM83.85,137.32c-.64-.59-2.16-1.28-2.28-.77l-.61,2.59,2.89-1.82Z"/>
      <path d="M389.32,161.01l-.87-2.4-9.35.58c-.34.02-1.29-.66-1.52-.88-.29-.28.79-1.13,1.2-1.13l9.87-.11c2.36-4.02-3.2-5.95-1.7-6.63.28-.13,1.26-.24,1.6-.02l9.12,5.77c.67.43,1.46,1.38,1.48,1.94s-.76,1.48-1.25,1.91l-8.69,7.72c-.2.17-.67.45-.91.56s-.94-.43-.85-.68c.61-1.71,3.25-2.79,1.87-6.62ZM397.23,158.41l-5.98-2.89.04,7.1,5.95-4.21Z"/>
      <path d="M283.8,166.31l1.99-5.06c-2.79-.1-4.75,1-6.83-1.49l9.03-.67c-1.52-2.26-5.25-3.18-3.95-4.2.28-.22,1.3-.33,1.6-.11l3.97,3-.42,2.72,3.49-.1-3.34-5.14-.64-.97c-.14-.22.81-.78,1.26-.98l4.55,6.53,7.12-.06c.23.37.53.84.36,1-.22.22-1.09.72-1.4.74l-5.38.23-.43,1.81c-.09.37-.71.29-1.56.31l-3.98,5.95c-.42.15-.97-1.17-.74-1.55l3.62-5.82c-1.24-.4-3.87-.87-4.86.14-1.15,1.17-2.31,7.15-3.05,4.88l-.38-1.17Z"/>
      <path d="M151.55,79.49c-.02-3.4-.22-6.17-1.63-8.81-5.41-10.13-13.08-12.05-24.5-9.1,3.81-4.63,15.75-3.06,20.69,1.35s7.78,10.15,7.36,16.67l-1.92-.1Z"/>
      <path d="M163.05,440.14c2.62,1.47,1.92,4.7.7,6.13-1.84,2.16-5.15,2.64-6.86.34-1.17-1.57-.36-4.01.69-5.28s3.8-2.13,5.47-1.2Z"/>
      <path d="M344.84,365.77c.05.3-.6,1.44-.81,1.26l-1.17-1c-.83-7.67-.96-14.88-.64-22.49l.93-.91c.18-.18.89.77.88,1.08l-.17,7.96c-.1,4.59.17,9.41.99,14.1Z"/>
      <path d="M480.06,58.07l-3.62-6.92-6.72-11.07c-.1-.18.24-1.3.55-1.16l1.47.69c3.62,5.54,6.77,11.3,9.5,17.38l-.18,1.3c-.04.28-.54.02-1.01-.22Z"/>
      <path d="M41.83,404.84l-2.68-3.49-6.12-7.57c1.22-1.36,3.66-1.66,5.1-.14l.44,2.55c1.04,2.33,2.99,5.17,4.51,7.28l.55,1.23c.12.26-1.61.38-1.8.13Z"/>
      <path d="M48.3,397.15c0,2.02-.12,5.18-.59,6.72-.08.26-1.58-.05-1.53-.31l.32-1.6-1-12.9c.27-.72.77-1.61,1.27-1.66.68-.08,1.57.92,1.57,1.56l-.03,8.19Z"/>
      <path d="M342.36,321.86l-1.18.44c-.22.08-.45-.7-.46-1.01l-.4-8.6-.2-8.87.69-.67c.15-.15.94.07.96.11l.75,12.44c.21,2.06.11,4.05-.15,6.15Z"/>
      <path d="M37.4,446.67c-.48-.09-1.44-1.38-1.25-1.89l3.95-10.6c.16-.44,1.53-.88,1.83-.68.5,4.18-1.59,9.38-4.54,13.17Z"/>
      <path d="M28.21,432.94c-.4.21-1.64.38-2.06.39s-.38-1.82,0-2.06l8.45-5.22c.98.27,2.06,1.92,1.86,2.62l-8.25,4.27Z"/>
      <path d="M376.39,9.01c.95,1.36,2.62,3.37,2.64,4.83,0,.44-1.42.78-1.6.45l-.82-1.48-7.55-10.82.52-1.44c.13-.37,1.14.32,1.41.7l5.41,7.78Z"/>
      <path d="M370.7,38.78l-9.31,6.17c-.24.11-1.28-.43-1.18-.65l.66-1.43,14.66-9.19c-.72,2.7-2.58,3.61-4.84,5.1Z"/>
      <path d="M489.15,27.61c-6.45.77-12.57.28-18.89-.54.22-1.64,1.31-1.69,2.6-1.59l7.68.63c2.77.58,5.71-.83,8.62,1.5Z"/>
      <path d="M488.2,4.71c-3.05,3.56-9.74,10.36-12.05,10.49-.34.02-.28-1.34,0-1.58l7.73-6.81,4.78-4.5c.12.86-.04,1.93-.45,2.41Z"/>
      <path d="M36.9,409.56c.53.33,1.18.73,1.31,1.05.17.39-.5,1.25-.88,1.45s-1.19-.23-1.68-.62c-2.82-2.24-6.23-3.88-9.57-5.23-.06-.3.13-1.25.44-1.43,1.6-.94,3.84.68,5.19,1.53l5.2,3.26Z"/>
      <path d="M332.6,329.19c-1.95-1.49-3.37-2.77-5.4-3.53l-7.22-2.7c-.4-.15-1.05-.89-1.21-1.21s.49-1.22.82-1.09l1.43.57,9.74,4.14c1.34.57,2.37,2.43,1.84,3.81Z"/>
      <path d="M375.6,23.45c-1.02,2.09-2.04.85-2.87.51l-11.55-4.78-.3-1.53c-.07-.34,1.23-.3,1.58-.14l8.81,3.98,4.32,1.96Z"/>
      <path d="M349.26,321.12c-.37-1.29.19-2.18,1.02-2.84l5.13-4.02c1.66-1.3,2.87-3.05,5.11-4.17-.93,3.77-6.9,8.72-11.27,11.03Z"/>
      <path d="M36.26,419.55c-2.57.73-5.05-.69-10.3-.46-.64.03-1.24-1.32-1.13-1.93.1-.58,1.41-1.44,2.02-1.3l3.93.88c2.06.51,3.54.66,5.48,2.81Z"/>
      <path d="M164.11,455.13c-.32,1.51-1.17,2.6-2.01,2.91-1.3.48-3.32.45-3.98-.56s-.11-2.73.56-3.35c.61-.57,2.43-1.46,3.08-.93l2.36,1.94Z"/>
      <path d="M363.21,347.32c-2.41.3-3.77-.56-5.75-1.59l-4.33-2.23c-.34-.18-.69-1.35-.42-1.6s1.17-.32,1.51-.14l5.12,2.63c1.37.71,2.42,1.55,3.87,2.93Z"/>
      <path d="M323.72,349.08l-1.3-.24c-.35-.06.17-1.26.53-1.43l8.06-3.83c1.08-.51,2.31-.54,3.39.15l-10.68,5.35Z"/>
      <path d="M347.7,161.92l-10.24,1.31-.21-1.14,4.02-1.18,6.77-.69c.2-.02.96.58.86.77-.14.28-.79.89-1.2.94Z"/>
      <path d="M208.11,316.63c0,.4-1.28.46-1.69.09l.12-8.99c0-.4,1.13-1.48,1.34-1.2s.45.88.44,1.28l-.22,8.83Z"/>
      <path d="M184.97,319.65l-8.38-2.73c-.41-.13-1.1-.65-1.24-.99-.17-.43.99-1.14,1.48-.98l6.4,2.11c1.04.34,2.08,1.66,1.74,2.59Z"/>
      <path d="M210.22,368.65l-.02,1.1c-.02.82-2.03.17-1.16-7.93.17-1.57.26-2.32,1.25-3.51.63,1.39.48,2.52.37,4.05l-.44,6.29Z"/>
      <path d="M169.43,83.33l-10.58-1.44.04-1.27c.01-.36.97-.37,1.33-.31l7.72,1.24c.52.08,1.42,1.06,1.49,1.78Z"/>
      <path d="M190.86,346.55l-8.99,6.63c1.45-3.88,5.24-5.1,7.72-7.56l.64-.64c.22-.22,1.27-.09,1.22.22s-.39,1.1-.59,1.35Z"/>
      <path d="M150.25,150.13c-1.18,1.09-1.91,3.16-4.1,2.48l5.75-5.95c1.13-1.17,2.61-2.16,4.3-1.98l-5.95,5.46Z"/>
      <path d="M176,147.54c1.83,3.47,3.79,7.75,1.74,8.39l-3.01-7.16-.32-1.32c-.08-.34,1.43-.22,1.59.08Z"/>
      <path d="M160.72,467.98c-.77-.25-1.81-.97-2.06-1.48-.3-.59.7-1.83,1.53-2.21.65-.3,2.02-.11,2.45.34.52.55.88,1.63.62,2.2-.28.62-1.93,1.33-2.53,1.14Z"/>
      <path d="M196.42,361.2c-.18.27-.93.84-1.14.99-.27.19-.53-.99-.32-1.31l3.85-5.95c.15-.24.8-.68,1.05-.77s.79.44.67.67l-.58,1.1-3.52,5.27Z"/>
      <path d="M131.96,55.16l-1.36-.75-.05-6.33c0-.17.2-.92.35-.9l1.42.27-.36,7.71Z"/>
      <path d="M159.93,70.4c-.29.13-1.32-.11-1.51-.28-.24-.22.38-.91.74-1.08l5.75-2.69c.24-.11,1.51-.1,1.44.14-.1.32-.52,1.11-.87,1.28l-5.56,2.62Z"/>
      <path d="M193.93,315.24l-1.37-6.78.67-1.25c.16-.3.93.47,1,.83l1.17,6.12c.07.38-.81.95-1.48,1.08Z"/>
      <path d="M175.3,336.72c-.31.06-1.8-.36-1.62-.62s.9-1.19,1.21-1.21l7.22-.61.17,1.17-6.98,1.27Z"/>
      <path d="M150.38,126.93c-1.6-.96-3.62-1.76-5.62-1.74-.53,0-.54-1.95.07-1.94,2.05.03,4.29.99,5.91,2.29l1.11.9c.24.19-1.18.68-1.47.5Z"/>
      <path d="M166.45,120.78l-.94-4.64c-.05-.26.21-1.08.31-1.33.13-.32,1.22.43,1.3.81l.93,4.57.12,1.26c.03.28-.87.79-1.04.57s-.62-.96-.67-1.24Z"/>
      <path d="M193.86,132.27l-7.46-.61c-.33-.03.38-1.37.72-1.35l6.94.37-.2,1.59Z"/>
      <path d="M143.25,209c.57.67-.62,2.25-1.62,2.48-.93.22-2.77-.76-2.61-1.6.38-1.98,2.54-1.75,4.23-.88Z"/>
      <path d="M189.19,106.82c.29,4.03-4.95,7.68-4.65,6.21.06-.31.32-1.16.56-1.44l4.09-4.77Z"/>
      <path d="M162.18,475.09c.42.51.1,1.96-.29,2.41-.45.53-2.48.62-2.72-.05-.27-.77.06-1.63.42-2.03s2.24-.75,2.59-.33Z"/>
      <path d="M144.43,53.81c-.06.31-.47,1.13-.7.97s-.87-.94-.8-1.22l1.17-4.7c.05-.2,1.09-.6,1.1-.4.01.31.02.96-.04,1.29l-.73,4.04Z"/>
      <path d="M1.98,161.86c.37-.48,2.12-.05,2.42.43s.18,1.55-.26,1.91c-.49.39-1.81.51-2.27.17s-.38-1.88.11-2.51Z"/>
      <path d="M142.63,245.97c.35.54-.49,1.85-1.03,2.13-.59.31-2.21.04-2.36-.58-.3-1.32,2.58-2.79,3.39-1.55Z"/>
      <path d="M43.44,193.95c.07.53-.72,1.46-1.22,1.67-.65.27-2.29-.09-2.33-.77-.11-1.82,3.09-2.03,3.55-.89Z"/>
      <path d="M141.85,273.54l-2.22,1.36c-.47-.57-.71-1.87-.4-2.37s1.46-.88,2.13-.88c.41,0,.86,1.67.49,1.9Z"/>
      <path d="M141.93,261.04c.65,1.52-2.76,2.65-3.28,1.35-.62-1.53,2.78-2.54,3.28-1.35Z"/>
      <path d="M5.01,186.73c-.38.33-1.55.12-1.78-.24s-.26-1.52.03-1.86c.42-.48,1.53-.75,1.99-.51.72.37.58,1.91-.24,2.62Z"/>
      <path d="M142.05,233.18c-.21.61-1.21,1.7-1.76,1.57s-1.19-1.01-1.62-1.78l2.02-.98c.18-.09.82-.16,1.03-.17.31-.02.44,1.06.34,1.35Z"/>
      <path d="M11.48,191.12c.69.11,1.58.41,1.8.81.26.49-.22,1.74-.73,1.97-.54.24-1.77-.31-1.93-.84-.18-.61.28-2.03.86-1.94Z"/>
      <path d="M26.82,195.96c-.65.62-1.22,1.12-1.64,1.31-.51.23-1.95-.5-2.02-1.05-.06-.51,1.12-1.45,1.62-1.35.58.11,1.59.69,2.04,1.08Z"/>
      <path d="M140.24,222.48c-.57-.32.24-2.35.96-2.67.59-.26,1.8.95,1.67,1.58-.15.73-1.64,1.64-2.63,1.09Z"/>
      <path d="M157.91,58.13c-2.01,1.26-1.63,3.49-4.59,3.04l4.6-4.43-.02,1.39Z"/>
      <path d="M160.86,487.13l-1.07-.97c-.25-.23.57-.99.89-1.1.38-.12,1.84-.21,1.83.18l-.04,1.67c0,.39-1.29.5-1.61.21Z"/>
      <path d="M59.07,323.91c.1-.27,1.25.13,1.22.41l-.15,1.45c-.04.38-1.81.08-1.67-.28l.6-1.59Z"/>
      <path d="M71.51,300.76c.28-.22,1.29-.44,1.4-.16s.28,1.34-.02,1.39l-1.19.17c-.3.04-.43-1.21-.19-1.4Z"/>
      <path d="M73.94,286.68c.14-.26,1.47-.63,1.52-.34l.2,1.18c.05.3-.81.33-1.15.32-.4-.01-.77-.82-.58-1.17Z"/>
      <path d="M65.75,284.46c-.17-.23,1.58-.82,1.62-.55l.21,1.47c.04.26-.74.61-.9.39l-.93-1.31Z"/>
      <path d="M47.05,296.24c.23-.13.82.37.88.62.08.33-.29,1.24-.6,1.11l-1.14-.47c-.32-.13.4-.99.86-1.26Z"/>
      <path d="M54.2,288.71c.1-.29,1.46-.42,1.46-.11l.04,1.39c0,.31-.85.22-1.12.08s-.49-1.03-.38-1.35Z"/>
      <path d="M161.2,493.37l1.22.26c.27.06.18,1.06-.1,1.07l-1.46.05c-.37.01-.03-1.45.33-1.38Z"/>
      <path d="M65.26,314.07c-.16-.29,1.42-.51,1.49-.23l.29,1.04c.07.27-.95.68-1.09.43l-.69-1.24Z"/>
    </g>
  </g>
</svg>